<svg version="1.1" xmlns="http://www.w3.org/2000/svg" viewBox="0 0 242.3885498046875 362.81256103515625" width="242.3885498046875" height="362.81256103515625">
  <!-- svg-source:excalidraw -->
  
  <defs>
    <style>
      @font-face {
        font-family: "Virgil";
        src: url("https://excalidraw.com/Virgil.woff2");
      }
      @font-face {
        font-family: "Cascadia";
        src: url("https://excalidraw.com/Cascadia.woff2");
      }
    </style>
  </defs>
  <rect x="0" y="0" width="242.3885498046875" height="362.81256103515625" fill="#ffffff"></rect><g stroke-linecap="round" transform="translate(76.2376708984375 272.1577453613281) rotate(0 42 39.46186828613281)"><path d="M27.55 2.05 C34.03 -0.79, 43.46 -0.44, 51.03 1.32 C58.6 3.08, 67.46 7.51, 72.96 12.59 C78.47 17.68, 82.83 24.84, 84.06 31.82 C85.3 38.79, 83.45 47.79, 80.38 54.44 C77.3 61.09, 71.82 67.76, 65.61 71.72 C59.4 75.67, 50.44 77.84, 43.1 78.16 C35.76 78.48, 27.91 77.1, 21.57 73.63 C15.24 70.16, 8.69 63.67, 5.09 57.32 C1.48 50.97, -0.75 42.53, -0.05 35.52 C0.64 28.51, 3.1 21.1, 9.28 15.25 C15.45 9.41, 30.56 2.88, 36.98 0.45 C43.39 -1.97, 47.69 -0.1, 47.77 0.68 M29.24 1.62 C35.65 -0.96, 45.05 -0.86, 52.37 1.07 C59.69 2.99, 67.8 8.16, 73.17 13.17 C78.55 18.18, 83.17 24.31, 84.64 31.13 C86.12 37.95, 85.16 47.12, 82.03 54.08 C78.9 61.05, 72.02 68.79, 65.87 72.92 C59.72 77.05, 52.83 78.84, 45.14 78.86 C37.46 78.87, 26.33 76.41, 19.74 73.01 C13.14 69.6, 8.65 64.69, 5.57 58.43 C2.49 52.16, 0.88 42.62, 1.25 35.42 C1.62 28.21, 3.48 20.85, 7.8 15.21 C12.13 9.57, 23.79 3.65, 27.21 1.58 C30.62 -0.48, 27.7 2.2, 28.3 2.81" stroke="#000000" stroke-width="1" fill="none"></path></g><g transform="translate(81.2376708984375 299.11961364746094) rotate(0 37 12.5)"><text x="37" y="18" font-family="Virgil, Segoe UI Emoji" font-size="20px" fill="#000000" text-anchor="middle" style="white-space: pre;" direction="ltr">自我</text></g><g stroke-linecap="round" transform="translate(49.9256591796875 209.07748413085938) rotate(0 69.5556640625 70.34417724609375)"><path d="M73.47 -0.49 C83 -1.05, 94.36 4.12, 103.21 9.31 C112.07 14.51, 120.81 22.46, 126.58 30.68 C132.35 38.9, 136.31 48.73, 137.83 58.63 C139.35 68.53, 138.32 80.32, 135.7 90.08 C133.08 99.84, 128.83 109.57, 122.13 117.21 C115.44 124.84, 105.15 131.93, 95.51 135.9 C85.87 139.88, 74.32 141.63, 64.3 141.06 C54.28 140.49, 43.92 137.44, 35.39 132.48 C26.86 127.53, 18.79 119.92, 13.14 111.33 C7.49 102.75, 3.12 91.13, 1.5 80.98 C-0.12 70.82, 0.73 60.18, 3.41 50.39 C6.1 40.6, 11.01 29.66, 17.6 22.24 C24.19 14.83, 32.89 9.62, 42.96 5.89 C53.03 2.15, 71.61 0.3, 78.03 -0.17 C84.44 -0.65, 81.73 1.73, 81.44 3.04 M52.04 3.49 C61.08 0.38, 73.86 -0.4, 83.82 1.64 C93.79 3.68, 103.67 9.69, 111.83 15.73 C119.98 21.77, 128.12 29.19, 132.74 37.9 C137.37 46.61, 139.74 57.91, 139.58 67.99 C139.41 78.07, 135.97 88.94, 131.73 98.38 C127.5 107.82, 121.88 117.76, 114.16 124.64 C106.44 131.51, 94.98 137.41, 85.41 139.61 C75.84 141.81, 66.42 139.94, 56.74 137.84 C47.06 135.75, 35.81 133.1, 27.34 127.05 C18.88 121, 10.33 110.94, 5.97 101.54 C1.6 92.15, 0.93 80.88, 1.15 70.67 C1.37 60.45, 3.2 49.3, 7.26 40.25 C11.33 31.19, 17.72 22.81, 25.55 16.35 C33.37 9.89, 49.65 3.62, 54.19 1.48 C58.72 -0.67, 52.49 2.39, 52.77 3.48" stroke="#000000" stroke-width="1" fill="none"></path></g><g transform="translate(96.97467041015625 231.56991577148438) rotate(0 20.5 14)"><text x="0" y="21" font-family="Virgil, Segoe UI Emoji" font-size="20px" fill="#000000" text-anchor="start" style="white-space: pre;" direction="ltr">家庭</text></g><g stroke-linecap="round" transform="translate(21.8746337890625 144.17205810546875) rotate(0 99.57568359375 102.59843444824219)"><path d="M127.63 3.18 C138.93 4.97, 149.65 13.2, 159.21 20.77 C168.77 28.34, 178.77 38.24, 185.01 48.59 C191.25 58.94, 194.6 70.82, 196.66 82.87 C198.71 94.92, 199.4 108.55, 197.32 120.89 C195.25 133.22, 190.47 146.2, 184.18 156.89 C177.9 167.58, 169.11 177.63, 159.61 185.04 C150.11 192.45, 138.72 198.12, 127.19 201.36 C115.66 204.6, 102.56 205.5, 90.45 204.51 C78.34 203.51, 65.16 200.88, 54.53 195.36 C43.9 189.85, 34.79 180.67, 26.68 171.4 C18.58 162.13, 10.41 151.13, 5.89 139.73 C1.36 128.34, -0.7 115.29, -0.47 103.03 C-0.25 90.77, 2.82 77.7, 7.25 66.18 C11.67 54.66, 18.15 43.05, 26.06 33.92 C33.96 24.78, 43.84 17.06, 54.68 11.4 C65.52 5.73, 78.19 0.93, 91.11 -0.07 C104.03 -1.07, 124.81 3.88, 132.2 5.38 C139.59 6.89, 136.16 7.46, 135.45 8.96 M116.84 1.19 C128.23 1.55, 142.37 8.43, 153 14.91 C163.62 21.4, 173.55 30.03, 180.6 40.1 C187.65 50.17, 192.31 63.38, 195.32 75.31 C198.33 87.25, 199.6 99.43, 198.67 111.71 C197.73 123.99, 194.98 137.63, 189.73 148.99 C184.47 160.35, 176.21 171.84, 167.13 179.87 C158.06 187.89, 146.49 192.95, 135.28 197.12 C124.07 201.3, 112.13 204.69, 99.88 204.93 C87.63 205.17, 72.89 203, 61.79 198.57 C50.69 194.13, 41.78 186.97, 33.28 178.35 C24.78 169.73, 16.3 158.18, 10.81 146.84 C5.33 135.51, 1.76 122.21, 0.38 110.34 C-0.99 98.47, -0.75 87.49, 2.55 75.61 C5.84 63.73, 12.78 48.92, 20.17 39.06 C27.55 29.2, 36.69 22.62, 46.89 16.44 C57.09 10.26, 69.32 4.49, 81.37 1.96 C93.42 -0.57, 113.09 1.06, 119.2 1.26 C125.3 1.45, 118.39 1.26, 117.99 3.14" stroke="#000000" stroke-width="1" fill="none"></path></g><g transform="translate(97.12109375 168.09201049804688) rotate(0 20.5 14)"><text x="0" y="21" font-family="Virgil, Segoe UI Emoji" font-size="20px" fill="#000000" text-anchor="start" style="white-space: pre;" direction="ltr">朋友</text></g><g stroke-linecap="round" transform="translate(17.07012939453125 97.57565307617188) rotate(0 104.78076171875 126.23347473144531)"><path d="M113.19 0.79 C124.47 0.09, 136.5 6.5, 147.29 12.37 C158.09 18.24, 169.38 26.19, 177.97 36 C186.56 45.82, 193.51 58.08, 198.84 71.24 C204.17 84.4, 208.71 100.64, 209.96 114.97 C211.2 129.3, 209.44 143.37, 206.33 157.21 C203.22 171.06, 198.24 186, 191.31 198.04 C184.37 210.09, 174.62 221.09, 164.72 229.47 C154.82 237.85, 143.44 244.57, 131.91 248.32 C120.39 252.07, 107.48 253.21, 95.57 251.97 C83.66 250.74, 71.2 246.9, 60.46 240.91 C49.72 234.92, 39.44 226.06, 31.14 216.06 C22.83 206.06, 15.79 193.84, 10.64 180.91 C5.5 167.98, 1.63 152.79, 0.28 138.46 C-1.08 124.13, -0.62 108.93, 2.53 94.94 C5.67 80.95, 12.16 66.51, 19.14 54.5 C26.11 42.48, 34.65 31.27, 44.36 22.85 C54.08 14.43, 65.6 7.73, 77.42 3.97 C89.25 0.21, 108.5 0.25, 115.31 0.3 C122.12 0.34, 118.15 2.07, 118.27 4.25 M103.62 0.88 C114.74 -1.29, 126.78 2.37, 138.08 6.99 C149.37 11.61, 161.93 19.48, 171.39 28.61 C180.86 37.73, 189.01 49.83, 194.86 61.75 C200.71 73.67, 204.42 86.01, 206.48 100.11 C208.54 114.22, 209.03 132.04, 207.23 146.36 C205.43 160.69, 201.39 173.77, 195.67 186.06 C189.95 198.36, 181.71 210.34, 172.89 220.13 C164.08 229.92, 153.66 239.17, 142.77 244.79 C131.88 250.42, 119.54 253.76, 107.54 253.88 C95.53 253.99, 82.22 250.48, 70.76 245.5 C59.3 240.53, 48.14 233.06, 38.76 224.02 C29.38 214.98, 20.61 203.42, 14.48 191.24 C8.35 179.06, 4.31 165.2, 1.97 150.96 C-0.38 136.72, -1.24 120.22, 0.44 105.8 C2.11 91.39, 6.06 76.71, 12 64.48 C17.94 52.25, 27.17 42, 36.09 32.44 C45 22.88, 54.48 12.73, 65.51 7.12 C76.53 1.51, 96.01 -0.67, 102.24 -1.22 C108.47 -1.76, 102.66 1.37, 102.86 3.86" stroke="#000000" stroke-width="1" fill="none"></path></g><g transform="translate(98.071533203125 110.38204956054688) rotate(0 20.5 14)"><text x="0" y="21" font-family="Virgil, Segoe UI Emoji" font-size="20px" fill="#000000" text-anchor="start" style="white-space: pre;" direction="ltr">熟人</text></g><g stroke-linecap="round" transform="translate(10 46.88671875) rotate(0 111.19427490234375 152.96292114257812)"><path d="M131.18 2.15 C142.93 2.69, 155.11 11.17, 165.59 19.27 C176.06 27.36, 186.07 38.37, 194.04 50.71 C202 63.04, 208.63 77.94, 213.39 93.27 C218.15 108.61, 221.8 126.36, 222.58 142.73 C223.37 159.09, 221.13 175.7, 218.1 191.48 C215.06 207.27, 210.88 223.73, 204.38 237.43 C197.87 251.13, 188.61 263.7, 179.05 273.71 C169.5 283.72, 158.64 292.17, 147.06 297.49 C135.48 302.8, 121.76 305.67, 109.6 305.61 C97.43 305.54, 85.18 302.62, 74.07 297.08 C62.95 291.54, 52.33 282.63, 42.89 272.39 C33.45 262.14, 24.1 249.45, 17.41 235.61 C10.71 221.77, 5.67 205.53, 2.74 189.35 C-0.19 173.16, -1.47 154.9, -0.17 138.5 C1.12 122.1, 5.51 106.18, 10.5 90.96 C15.49 75.74, 21.65 59.53, 29.76 47.2 C37.87 34.87, 48.56 24.67, 59.15 16.97 C69.75 9.27, 80.74 3.38, 93.31 0.99 C105.88 -1.4, 127.52 1.51, 134.57 2.64 C141.62 3.76, 136.06 5.14, 135.59 7.76 M128.09 2.87 C139.75 2.9, 153.36 10.9, 163.79 18.56 C174.22 26.22, 182.46 36.95, 190.66 48.83 C198.87 60.72, 207.65 75.28, 213.03 89.87 C218.41 104.45, 221.98 120.18, 222.92 136.35 C223.85 152.52, 221.33 170.78, 218.64 186.89 C215.94 203, 212.96 219.05, 206.73 233.03 C200.51 247, 190.81 260.33, 181.28 270.72 C171.74 281.1, 160.74 289.28, 149.52 295.32 C138.3 301.36, 126.08 306.31, 113.95 306.96 C101.82 307.61, 88.13 304.35, 76.75 299.23 C65.36 294.11, 55.04 286.45, 45.66 276.22 C36.28 265.99, 27.26 251.64, 20.45 237.87 C13.64 224.09, 8.4 209.18, 4.8 193.58 C1.21 177.98, -1.73 161.08, -1.11 144.25 C-0.49 127.43, 3.51 107.99, 8.49 92.65 C13.48 77.31, 20.75 64.58, 28.8 52.21 C36.86 39.85, 46.56 26.85, 56.84 18.45 C67.13 10.05, 78.94 4.5, 90.52 1.81 C102.1 -0.89, 120.34 1.57, 126.3 2.28 C132.26 2.98, 126.34 3.69, 126.29 6.03" stroke="#000000" stroke-width="1" fill="none"></path></g><g transform="translate(100.071533203125 62.023101806640625) rotate(0 20.5 14)"><text x="0" y="21" font-family="Virgil, Segoe UI Emoji" font-size="20px" fill="#000000" text-anchor="start" style="white-space: pre;" direction="ltr">同学</text></g><g transform="translate(91.23187255859375 10) rotate(0 30.5 14)"><text x="0" y="21" font-family="Virgil, Segoe UI Emoji" font-size="20px" fill="#000000" text-anchor="start" style="white-space: pre;" direction="ltr">陌生人</text></g></svg>